<?xml version="1.0" encoding="UTF-8" standalone="no"?>
<!-- Created with Inkscape (http://www.inkscape.org/) -->

<svg
   width="119.29253mm"
   height="141.35844mm"
   viewBox="0 0 119.29252 141.35844"
   version="1.1"
   id="svg1"
   xml:space="preserve"
   sodipodi:docname="osmprj-logo-big.svg"
   inkscape:version="1.4.3 (0d15f75, 2025-12-25)"
   xmlns:inkscape="http://www.inkscape.org/namespaces/inkscape"
   xmlns:sodipodi="http://sodipodi.sourceforge.net/DTD/sodipodi-0.dtd"
   xmlns="http://www.w3.org/2000/svg"
   xmlns:svg="http://www.w3.org/2000/svg"><sodipodi:namedview
     id="namedview1"
     pagecolor="#ffffff"
     bordercolor="#666666"
     borderopacity="1.0"
     inkscape:showpageshadow="2"
     inkscape:pageopacity="0.0"
     inkscape:pagecheckerboard="0"
     inkscape:deskcolor="#d1d1d1"
     inkscape:document-units="mm"
     inkscape:zoom="1.1257482"
     inkscape:cx="233.17826"
     inkscape:cy="242.94954"
     inkscape:window-width="1728"
     inkscape:window-height="1056"
     inkscape:window-x="0"
     inkscape:window-y="33"
     inkscape:window-maximized="1"
     inkscape:current-layer="g17"><inkscape:page
       x="1.2920187e-22"
       y="0"
       width="119.29253"
       height="141.35844"
       id="page2"
       margin="0"
       bleed="0" /></sodipodi:namedview><defs
     id="defs1" /><g
     id="layer1"
     transform="translate(-29.799398,-57.499504)"><g
       id="g2"
       transform="matrix(3.1592014,0,0,3.1592014,33.644402,85.103977)"
       style="stroke-width:1.86111"><circle
         fill="#88c9f9"
         cx="18"
         cy="18"
         r="18"
         id="circle1"
         style="fill:#9bc9e6;fill-opacity:1;stroke-width:1.86111"
         inkscape:export-filename="osmprj-logo-big.svg"
         inkscape:export-xdpi="96"
         inkscape:export-ydpi="96" /><path
         fill="#5c913b"
         d="m 25.716,1.756 c -1.022,0.568 -1.872,1.528 -3.028,1.181 -1.875,-0.562 -4.375,-1.812 -6,-0.25 -1.625,1.562 -2,3 0,2.938 2,-0.062 3.375,-2.438 4.375,-1.438 1,1 0.749,1.813 -1.625,2.125 C 17.064,6.624 14.5,7 13.125,7 11.75,7 11.437,7.812 12.375,8.688 13.313,9.564 11.812,9.625 10.25,10.5 c -1.562,0.875 0.375,1.25 1.688,2 1.313,0.75 2.312,-0.188 2.875,-1.438 0.563,-1.25 2.981,-2.75 3.99,-2.562 1.01,0.188 1.01,0.688 0.822,1.562 -0.188,0.874 0.75,0.625 0.812,-0.375 0.062,-1 1.188,-1.75 2.062,-1.812 0.874,-0.062 1.625,1.188 0.625,1.812 -1,0.624 -2,1.125 -0.75,1.438 1.25,0.313 2.125,1.938 0.688,2.625 -1.437,0.687 -3.937,1.125 -5.062,0.562 -1.125,-0.563 -3.688,-1.375 -4.375,-0.938 -0.687,0.437 -1.062,0.89 -1.875,1.195 -0.812,0.305 -4.125,1.805 -4.188,3.743 -0.063,1.938 -0.124,4.126 1.188,4.188 1.312,0.062 4.5,-0.812 5.5,-1.625 1,-0.813 2.375,-0.625 2.812,0.312 0.437,0.937 0.125,1.5 -0.312,3 -0.437,1.5 0.286,2.25 0.987,3.562 0.701,1.312 1.263,2.062 1.263,3 0,0.938 1,1.875 2.5,0.312 1.5,-1.563 2.875,-4.625 3.5,-5.75 0.625,-1.125 1.125,-3.625 1.875,-4.125 0.75,-0.5 1.938,-1.688 1.062,-1.5 -0.876,0.188 -2.625,-0.062 -3.062,-1.312 -0.437,-1.25 -2.312,-3.625 -1.438,-3.875 0.874,-0.25 1.875,1.39 2.25,2.164 0.375,0.774 0.875,1.711 1.625,1.961 0.75,0.25 2.375,-1.673 2.875,-1.961 0.5,-0.289 0.125,-1.476 -0.875,-1.351 -1,0.125 -2.312,0 -2.312,-0.624 0,-0.624 1.25,-1.438 2.25,-1.25 1,0.188 1.75,0.5 2.375,1.25 0.625,0.75 1.875,2.125 2.375,3 0.5,0.875 0.875,1 1.125,-0.562 0.166,-1.038 0.387,-1.609 0.59,-2.222 C 34.702,9.075 30.895,4.221 25.716,1.756 Z"
         id="path1-8"
         style="stroke-width:1.86111" /><g
         id="g16"
         transform="matrix(0.16386797,0,0,0.16386797,6.4674852,3.7463643)"
         style="stroke-width:0.951181">

</g><g
         fill="none"
         stroke="#ffffff"
         stroke-opacity="0.5"
         stroke-width="1.99091"
         stroke-linecap="round"
         stroke-linejoin="round"
         id="g4"
         transform="matrix(0.18126441,0,0,0.18126379,-0.60099054,-0.60727181)">
    <!-- outer globe rim -->
    <circle
   cx="102.618"
   cy="102.613"
   r="98.306999"
   id="circle1-7"
   style="stroke-width:1.99091" />

    <!-- equator -->
    <line
   x1="6"
   y1="102.613"
   x2="199.229"
   y2="102.613"
   id="line1"
   style="stroke-width:1.99091" />

    <!-- latitude lines -->
    <path
   d="m 19,46.6 c 27,7.9 56,11.9 85.9,11.9 28.1,0 55.1,-4 81.1,-11.9"
   id="path1-5"
   style="stroke-width:1.99091" />
    <path
   d="M 19.2,156.4 C 47,148 75.5,144 104.8,144 c 28,0 55.4,4 81.2,12.4"
   id="path2-9"
   style="stroke-width:1.99091" />

    <!-- longitude lines -->
    <line
   x1="102.613"
   y1="7.9000001"
   x2="102.613"
   y2="201"
   id="line2"
   style="stroke-width:1.99091" />
    <path
   d="m 67.9,9.4 c -11.6,30.1 -16.4,63.6 -14,97.1 2.2,31 10.1,61 19.5,88"
   id="path3-5"
   style="stroke-width:1.99091" />
    <path
   d="m 137.3,9.4 c 11.6,30.1 16.4,63.6 14,97.1 -2.2,31 -10.1,61 -19.5,88"
   id="path4-3"
   style="stroke-width:1.99091" />
  <g
   id="g17"
   transform="matrix(5.5168029,0,0,5.5168218,40.648529,-8.9633242)"
   style="stroke-width:1.32312;stroke-dasharray:none"><text
     xml:space="preserve"
     style="font-size:128px;line-height:normal;font-family:'JetBrainsMono Nerd Font Mono';-inkscape-font-specification:'JetBrainsMono Nerd Font Mono';text-align:center;text-decoration-color:#000000;white-space:pre;shape-inside:url(#rect189130);display:inline;fill:#22280b;stroke:#ffffff;stroke-width:11.3386;stroke-linecap:round;stroke-linejoin:bevel;stroke-dasharray:none;stroke-opacity:0.842213;paint-order:markers stroke fill;stop-color:#000000"
     x="127.15994"
     y="846.86523"
     id="text2"
     transform="matrix(0.08375007,0,0,0.08375007,-7.8846163,35.320175)"><tspan
       x="0"
       y="0"
       id="tspan3"><tspan
         style="font-weight:bold;font-family:'PT Mono';-inkscape-font-specification:'PT Mono Bold'"
         id="tspan1">osmprj</tspan></tspan></text></g></g></g><g
       id="g1"
       transform="matrix(0.09484228,0.03349731,-0.03349731,0.09484228,71.249058,19.449078)"
       style="stroke-width:2.05506"><path
         d="m 959,416 v 337 c 0,9.8 -8,17.8 -17.8,17.8 h -88.8 c -9,0 -16.6,-6.8 -17.7,-15.7 l -3.2,-26.8 h -56.9 c -9,0 -16.5,-6.6 -17.7,-15.5 l -8.5,-64.3 c -14.1,0.9 -28.2,1.4 -42.3,1.4 -35.1,0 -70.2,-2.9 -105.9,-8.6 l -7.7,113 c -0.6,9.4 -8.4,16.6 -17.8,16.6 H 493 c -9.3,0 -17,-7.1 -17.8,-16.4 L 473,728.3 h -57.9 c -9.1,0 -16.7,-6.8 -17.7,-15.8 L 379.6,556.7 c -12.2,2.8 -19.8,1.9 -20.9,1.8 -10.9,31.9 -29.4,60.4 -53.2,81.3 -27.9,24.5 -61,37.9 -96.1,39 -33.6,0 -70.7,-12.9 -96.6,-37.2 -24.9,-23.4 -42.4,-56.1 -49.4,-91.9 -1,-5.4 0.4,-10.9 3.8,-15.1 3.5,-4.2 8.6,-6.7 14.1,-6.7 h 40.9 c 6.9,0 13.2,3.9 16.3,10.1 12.2,24.3 28.8,38.8 44.4,38.8 18.1,0 37.1,-19.2 49.5,-50.2 7.6,-18.9 11.7,-73.2 12,-74.6 2.3,-108.3 91.1,-195.6 199.9,-195.6 0,0 129.6,3.4 377.8,17.3 76.8,4.2 136.9,65.5 136.9,142.3 z"
         fill="#663333"
         id="path1"
         style="fill:#504d4d;fill-opacity:1;stroke-width:2.05506" /><path
         d="M 923.3,416 V 735.1 H 868.2 L 847.4,560.3 c -1.2,-9.8 -10,-16.8 -19.8,-15.6 -9.8,1.2 -16.8,10 -15.6,19.8 l 4.7,39.7 c -18.4,3.2 -36.7,5.7 -54.6,7.3 -53.3,4.8 -105.8,2.8 -159.8,-6.2 l 2.5,-41.9 c 0.6,-9.8 -6.9,-18.3 -16.7,-18.9 -9.8,-0.6 -18.3,6.9 -18.9,16.7 l -3.4,56.9 -7.8,117 H 509.4 L 495,578.6 c -0.8,-9.8 -9.4,-17.1 -19.2,-16.3 -9.8,0.8 -17.1,9.4 -16.3,19.2 l 10.5,111 H 431.2 L 412.5,530 c -1.1,-9.8 -9.9,-16.8 -19.7,-15.7 -2.5,0.3 -4.8,1.1 -6.8,2.2 -10.8,6.1 -23.3,7.8 -35.4,4.9 -9.6,-2.4 -19.3,3.3 -21.7,12.9 -8,31.2 -24.6,59.1 -46.8,78.7 -21.3,18.8 -46.5,29.1 -72.9,30.1 h -0.4 c -24.3,0 -51.7,-10.2 -70.8,-28.1 -14.3,-13.4 -25.4,-30.9 -32.6,-50.5 h 6.1 c 18.6,31.2 44.2,48.8 71.6,48.8 33.9,0 65.1,-27.3 83.5,-73.1 9.3,-23.2 14,-86.3 13.8,-87.5 1.9,-88.9 74.9,-160.7 164.2,-160.7 0,0 61.2,1.1 61.3,1.1 8.9,0.4 17.3,3.4 25,8.7 l 15.9,11.1 c 22.3,15.6 36,40 37.7,67.2 1.7,27.1 -8.9,53.1 -29.1,71.4 l -62.9,56.8 c -7.9,7.1 -18.3,8.7 -27.9,4.2 C 455,508 449.5,499 449.9,488.4 v -1.1 l -0.7,-31.4 c -0.2,-9.8 -8.3,-17.6 -18.2,-17.4 -9.8,0.2 -17.6,8.4 -17.4,18.2 l 0.7,31 c -0.7,24.8 12.8,46.7 35.3,57.2 8.5,4 17.4,5.9 26.2,5.9 14.7,0 29.1,-5.4 40.7,-15.9 l 62.9,-56.8 c 28.3,-25.5 43.2,-62 40.8,-100.1 -1.9,-31 -15.1,-59.5 -36.8,-80.8 l 237.4,12.1 h 0.2 c 57.3,2.2 102.3,49.1 102.3,106.7 z"
         fill="#b2abac"
         id="path2"
         style="fill:#afafaf;fill-opacity:1;stroke-width:2.05506" /><path
         d="m 877,416 c 0,9.8 -8,17.8 -17.8,17.8 -9.8,0 -17.8,-8 -17.8,-17.8 0,-13.4 -10.4,-24.2 -23.8,-24.8 -0.1,0 -108.3,-5.5 -108.3,-5.5 -9.8,-0.5 -17.4,-8.9 -16.9,-18.7 0.5,-9.8 8.9,-17.4 18.7,-16.9 l 107.7,5.5 h 0.3 c 32.4,1.3 57.9,27.8 57.9,60.4 z"
         fill="#663333"
         id="path3"
         style="fill:#504d4d;fill-opacity:1;stroke-width:2.05506" /><path
         d="m 821,639.7 6.3,52.8 h -37.1 l -6.3,-47.4 c 12.3,-1.4 24.7,-3.2 37.1,-5.4 z"
         fill="#b2abac"
         id="path4"
         style="stroke-width:2.05506" /><path
         d="m 336.3,392.5 c 9.8,0 17.8,8 17.8,17.8 0,9.8 -8,17.8 -17.8,17.8 -9.8,0 -17.8,-8 -17.8,-17.8 0,-9.9 8,-17.8 17.8,-17.8 z"
         fill="#663333"
         id="path5"
         style="fill:#504d4d;fill-opacity:1;stroke-width:2.05506" /></g></g></svg>
