<svg xmlns="http://www.w3.org/2000/svg" xml:space="preserve" width="305.762" height="367.329" viewBox="0 0 80.899 97.189">
    <g style="stroke-width:3.14826" transform="translate(0 29.956)scale(1.86758)">
        <circle cx="18" cy="18" r="18" fill="#88c9f9" style="fill:#9bc9e6;fill-opacity:1;stroke-width:3.14826"/>
        <path fill="#5c913b" d="M25.716 1.756c-1.022.568-1.872 1.528-3.028 1.181-1.875-.562-4.375-1.812-6-.25s-2 3 0 2.938 3.375-2.438 4.375-1.438.749 1.813-1.625 2.125S14.5 7 13.125 7s-1.688.812-.75 1.688-.563.937-2.125 1.812.375 1.25 1.688 2 2.312-.188 2.875-1.438 2.981-2.75 3.99-2.562 1.01.688.822 1.562.75.625.812-.375 1.188-1.75 2.062-1.812 1.625 1.188.625 1.812-2 1.125-.75 1.438 2.125 1.938.688 2.625-3.937 1.125-5.062.562-3.688-1.375-4.375-.938-1.062.89-1.875 1.195-4.125 1.805-4.188 3.743-.124 4.126 1.188 4.188 4.5-.812 5.5-1.625 2.375-.625 2.812.312.125 1.5-.312 3 .286 2.25.987 3.562 1.263 2.062 1.263 3 1 1.875 2.5.312 2.875-4.625 3.5-5.75 1.125-3.625 1.875-4.125 1.938-1.688 1.062-1.5-2.625-.062-3.062-1.312-2.312-3.625-1.438-3.875 1.875 1.39 2.25 2.164.875 1.711 1.625 1.961 2.375-1.673 2.875-1.961.125-1.476-.875-1.351-2.312 0-2.312-.624 1.25-1.438 2.25-1.25 1.75.5 2.375 1.25 1.875 2.125 2.375 3 .875 1 1.125-.562c.166-1.038.387-1.609.59-2.222-1.013-5.829-4.82-10.683-9.999-13.148" style="stroke-width:3.14826"/>
    </g>
    <g style="stroke-width:2.75175">
        <path fill="#633" d="M959 416v337c0 9.8-8 17.8-17.8 17.8h-88.8c-9 0-16.6-6.8-17.7-15.7l-3.2-26.8h-56.9c-9 0-16.5-6.6-17.7-15.5l-8.5-64.3c-14.1.9-28.2 1.4-42.3 1.4-35.1 0-70.2-2.9-105.9-8.6l-7.7 113c-.6 9.4-8.4 16.6-17.8 16.6H493c-9.3 0-17-7.1-17.8-16.4l-2.2-26.2h-57.9c-9.1 0-16.7-6.8-17.7-15.8l-17.8-155.8c-12.2 2.8-19.8 1.9-20.9 1.8-10.9 31.9-29.4 60.4-53.2 81.3-27.9 24.5-61 37.9-96.1 39-33.6 0-70.7-12.9-96.6-37.2-24.9-23.4-42.4-56.1-49.4-91.9-1-5.4.4-10.9 3.8-15.1 3.5-4.2 8.6-6.7 14.1-6.7h40.9c6.9 0 13.2 3.9 16.3 10.1 12.2 24.3 28.8 38.8 44.4 38.8 18.1 0 37.1-19.2 49.5-50.2 7.6-18.9 11.7-73.2 12-74.6 2.3-108.3 91.1-195.6 199.9-195.6 0 0 129.6 3.4 377.8 17.3C898.9 277.9 959 339.2 959 416" style="fill:#504d4d;fill-opacity:1;stroke-width:2.75175" transform="rotate(26.042 80.203 47.064)scale(.07512)"/>
        <path fill="#b2abac" d="M923.3 416v319.1h-55.1l-20.8-174.8c-1.2-9.8-10-16.8-19.8-15.6s-16.8 10-15.6 19.8l4.7 39.7c-18.4 3.2-36.7 5.7-54.6 7.3-53.3 4.8-105.8 2.8-159.8-6.2l2.5-41.9c.6-9.8-6.9-18.3-16.7-18.9s-18.3 6.9-18.9 16.7l-3.4 56.9-7.8 117h-48.6L495 578.6c-.8-9.8-9.4-17.1-19.2-16.3s-17.1 9.4-16.3 19.2l10.5 111h-38.8L412.5 530c-1.1-9.8-9.9-16.8-19.7-15.7-2.5.3-4.8 1.1-6.8 2.2-10.8 6.1-23.3 7.8-35.4 4.9-9.6-2.4-19.3 3.3-21.7 12.9-8 31.2-24.6 59.1-46.8 78.7-21.3 18.8-46.5 29.1-72.9 30.1h-.4c-24.3 0-51.7-10.2-70.8-28.1-14.3-13.4-25.4-30.9-32.6-50.5h6.1c18.6 31.2 44.2 48.8 71.6 48.8 33.9 0 65.1-27.3 83.5-73.1 9.3-23.2 14-86.3 13.8-87.5 1.9-88.9 74.9-160.7 164.2-160.7 0 0 61.2 1.1 61.3 1.1 8.9.4 17.3 3.4 25 8.7l15.9 11.1c22.3 15.6 36 40 37.7 67.2 1.7 27.1-8.9 53.1-29.1 71.4l-62.9 56.8c-7.9 7.1-18.3 8.7-27.9 4.2s-15.1-13.5-14.7-24.1v-1.1l-.7-31.4c-.2-9.8-8.3-17.6-18.2-17.4-9.8.2-17.6 8.4-17.4 18.2l.7 31c-.7 24.8 12.8 46.7 35.3 57.2 8.5 4 17.4 5.9 26.2 5.9 14.7 0 29.1-5.4 40.7-15.9l62.9-56.8c28.3-25.5 43.2-62 40.8-100.1-1.9-31-15.1-59.5-36.8-80.8l237.4 12.1h.2c57.3 2.2 102.3 49.1 102.3 106.7" style="fill:#afafaf;fill-opacity:1;stroke-width:2.75175" transform="rotate(26.042 80.203 47.064)scale(.07512)"/>
        <path fill="#633" d="M877 416c0 9.8-8 17.8-17.8 17.8s-17.8-8-17.8-17.8c0-13.4-10.4-24.2-23.8-24.8-.1 0-108.3-5.5-108.3-5.5-9.8-.5-17.4-8.9-16.9-18.7s8.9-17.4 18.7-16.9l107.7 5.5h.3c32.4 1.3 57.9 27.8 57.9 60.4" style="fill:#504d4d;fill-opacity:1;stroke-width:2.75175" transform="rotate(26.042 80.203 47.064)scale(.07512)"/>
        <path fill="#b2abac" d="m821 639.7 6.3 52.8h-37.1l-6.3-47.4c12.3-1.4 24.7-3.2 37.1-5.4" style="stroke-width:2.75175" transform="rotate(26.042 80.203 47.064)scale(.07512)"/>
        <path fill="#633" d="M336.3 392.5c9.8 0 17.8 8 17.8 17.8s-8 17.8-17.8 17.8-17.8-8-17.8-17.8c0-9.9 8-17.8 17.8-17.8" style="fill:#504d4d;fill-opacity:1;stroke-width:2.75175" transform="rotate(26.042 80.203 47.064)scale(.07512)"/>
    </g>
</svg>
